<svg width="20" height="20" viewBox="0 0 20 20" fill="none" xmlns="http://www.w3.org/2000/svg">
<path d="M2.50525 5H4.17192H17.5052" stroke="#BC0808" stroke-width="2" stroke-linecap="round" stroke-linejoin="round"/>
<path d="M6.67191 5.00001V3.33334C6.67191 2.89131 6.8475 2.46739 7.16006 2.15483C7.47262 1.84227 7.89655 1.66667 8.33857 1.66667H11.6719C12.1139 1.66667 12.5379 1.84227 12.8504 2.15483C13.163 2.46739 13.3386 2.89131 13.3386 3.33334V5.00001M15.8386 5.00001V16.6667C15.8386 17.1087 15.663 17.5326 15.3504 17.8452C15.0379 18.1577 14.6139 18.3333 14.1719 18.3333H5.83857C5.39654 18.3333 4.97262 18.1577 4.66006 17.8452C4.3475 17.5326 4.17191 17.1087 4.17191 16.6667V5.00001H15.8386Z" stroke="#BC0808" stroke-width="2" stroke-linecap="round" stroke-linejoin="round"/>
<path d="M8.33859 9.16667V14.1667" stroke="#BC0808" stroke-width="2" stroke-linecap="round" stroke-linejoin="round"/>
<path d="M11.6719 9.16667V14.1667" stroke="#BC0808" stroke-width="2" stroke-linecap="round" stroke-linejoin="round"/>
</svg>
